<?xml version="1.0" encoding="UTF-8"?>
<svg id="Layer_2" data-name="Layer 2" xmlns="http://www.w3.org/2000/svg" viewBox="0 0 495 491.89">
  <defs>
    <style>
      .cls-1 {
        fill: #fff;
      }

      .cls-2 {
        fill: #1c75bc;
        stroke: #fff;
        stroke-miterlimit: 10;
        stroke-width: 15px;
      }
    </style>
  </defs>
  <g id="Layer_1-2" data-name="Layer 1">
    <g>
      <ellipse class="cls-2" cx="247.5" cy="245.95" rx="240" ry="238.45"/>
      <g>
        <g>
          <path d="M397.34,244.15c0,82.76-67.09,149.84-149.84,149.84s-149.84-67.09-149.84-149.84S164.74,94.31,247.5,94.31s149.84,67.09,149.84,149.84ZM186.92,150.81c2.38-.1,4.81,0,7.2,0,.3,0,2.15,2.21,2.26,2.85,1.13,6.24-9.71,3.57-12.98,5.27l-1.78,7.33c.07,1.29,11.69-2.97,12.28,3.01s-10.09,3.22-13.55,5.03l-1.68,8.48c.65,1.04.89.2,1.04.2h9.74c.87,0,2.17,1.83,2.31,2.78.97,6.58-9.84,3.53-13.53,4.84v11.43c3.14.11,11.64-2.92,12.62,1.58,1.42,6.5-8.62,4.3-12.01,6.01.1,5.61,1.03,11.47,2.07,17.04,2.51,13.44,7.07,26.42,12.59,38.87,23.98-7.93,46.3-20.33,66.68-35.12l.61-1.08c-1.48-26.74-2.53-54.19.92-80.8,1.54-11.88,4.37-23.32,8.41-34.57-20.86-3.01-42.91-2.15-62.99,4.54-3.16,1.05-5.04,1.14-7.05,3.96-2.98,4.19-5.04,9.4-7.87,13.73,2.68.39,6.27-.45,7.03,3.15,1.18,5.58-7.61,3.88-10.74,5.2-.33,1.97-1.96,4.17-2.22,6.04-.18,1.29.51.22.64.21ZM379.35,240.14c-1.2-56.56-41.5-108.25-96.07-122.75-4.73,10.92-7.63,22.76-8.45,34.63,40.29,10.47,75.78,36.45,96.55,72.6l7.97,15.52ZM165.12,205.64v-10.8c-3.25.2-5.52,5.02-8.91,1.92-3.8-3.48,1.25-6.39,3.97-7.92,1.36-.77,5.14-1.87,5.36-3.11.13-.7.59-5.48.42-5.71-2.35,1.41-5.16,4.75-7.81,1.68-4-4.63,6.34-9.12,9.3-10.99l1.05-5.5c-.36-.37-3.01,2.11-3.79,2.35-3.36,1.06-6.17-3.21-3.83-5.96,1.65-1.94,9.86-5.85,10.2-6.41.41-.67.31-1.92.81-2.68-1.01-.05-1.41.94-2.42,1.18-4.37,1.02-6.37-3.1-3.32-6.28,2.21-2.3,8.6-4.9,9.73-6.36.44-.56,4.38-9.71,4.04-10.14-47.77,28.09-73.75,86.37-61.31,140.91,20.55,4.37,41.96,2.93,62.16-2.47-7.85-17.55-13.02-36.28-15.02-55.47-.36-.68-2.35.62-2.91.92-1.58.84-5.01,3.65-6.45,3.74-1.12.08-3.17-1.39-3.48-2.41-1.58-5.23,8.89-8.32,12.19-10.5ZM358.19,315.09c3.74-4.68,6.88-10.74,9.38-16.23,2.39-5.23,8.28-19.85,8.41-25.07.05-2.11-1.62-7.27-2.25-9.6-13.44-49.24-51.46-85.21-100.22-98.98-1.45,13.91-.63,28.09-.87,42.15l1.36,20.87c37.14,16.5,75.52,44.74,84.19,86.86ZM122.78,285.87c2.33,9.1,6.84,18.17,11.68,26.21,5.2,8.66,15.61,23.58,24.58,27.92,44.57,21.56,113.99-.1,148.99-32.11,7.69-7.03,15.18-15.98,19.27-25.61-6.85-8.78-15.78-16.52-24.86-23.01-10.35-7.39-21.69-13.73-33.34-18.71-5.08,2.9-9.72,6.71-14.67,9.91-34.25,22.17-74.74,38.02-116.2,37.1l-15.43-1.71ZM187.14,361.65c4.56,1.77,8.86,4.1,13.44,5.83,47.23,17.78,100.03,7.32,136.87-26.77,2.08-1.93,7.67-7.15,8.91-9.3.6-1.03.44-1.87.4-2.98-.43-9.86-4.24-24.38-9.65-32.69-.27-.41-.48-1.13-1.14-.97-.44.11-4.28,6.48-5.12,7.58-24.11,31.74-69.81,52.96-108.84,57.98-11.38,1.46-23.27,1.98-34.65.48l-.22.85Z"/>
          <path class="cls-1" d="M122.78,285.87l15.43,1.71c41.46.92,81.95-14.93,116.2-37.1,4.95-3.2,9.59-7.01,14.67-9.91,11.66,4.98,22.99,11.31,33.34,18.71,9.08,6.49,18.01,14.23,24.86,23.01-4.09,9.63-11.58,18.58-19.27,25.61-35,32-104.42,53.67-148.99,32.11-8.97-4.34-19.38-19.26-24.58-27.92-4.83-8.04-9.35-17.12-11.68-26.21Z"/>
          <path class="cls-1" d="M186.92,150.81c-.13,0-.82,1.07-.64-.21.26-1.87,1.89-4.07,2.22-6.04,3.13-1.32,11.92.38,10.74-5.2-.76-3.6-4.35-2.77-7.03-3.15,2.83-4.33,4.89-9.53,7.87-13.73,2.01-2.83,3.89-2.91,7.05-3.96,20.08-6.69,42.13-7.56,62.99-4.54-4.04,11.24-6.87,22.68-8.41,34.57-3.45,26.61-2.4,54.07-.92,80.8l-.61,1.08c-20.38,14.79-42.7,27.19-66.68,35.12-5.51-12.45-10.08-25.43-12.59-38.87-1.04-5.58-1.96-11.44-2.07-17.04,3.39-1.71,13.43.49,12.01-6.01-.98-4.49-9.48-1.47-12.62-1.58v-11.43c3.69-1.3,14.5,1.74,13.53-4.84-.14-.95-1.43-2.78-2.31-2.78h-9.74c-.16,0-.4.83-1.04-.2l1.68-8.48c3.45-1.81,14.14.92,13.55-5.03s-12.21-1.72-12.28-3.01l1.78-7.33c3.27-1.7,14.12.97,12.98-5.27-.12-.64-1.96-2.85-2.26-2.85-2.39,0-4.81-.1-7.2,0Z"/>
          <path class="cls-1" d="M358.19,315.09c-8.67-42.12-47.05-70.37-84.19-86.86l-1.36-20.87c.24-14.05-.58-28.24.87-42.15,48.76,13.77,86.78,49.74,100.22,98.98.63,2.33,2.3,7.49,2.25,9.6-.13,5.22-6.02,19.85-8.41,25.07-2.51,5.49-5.64,11.55-9.38,16.23Z"/>
          <path class="cls-1" d="M165.12,205.64c-3.3,2.17-13.77,5.27-12.19,10.5.31,1.02,2.36,2.49,3.48,2.41,1.43-.1,4.86-2.9,6.45-3.74.56-.3,2.55-1.6,2.91-.92,2,19.19,7.17,37.92,15.02,55.47-20.2,5.4-41.61,6.83-62.16,2.47-12.44-54.55,13.54-112.82,61.31-140.91.34.42-3.6,9.57-4.04,10.14-1.13,1.45-7.52,4.05-9.73,6.36-3.05,3.18-1.06,7.3,3.32,6.28,1-.23,1.4-1.22,2.42-1.18-.51.76-.4,2.01-.81,2.68-.35.56-8.55,4.47-10.2,6.41-2.34,2.75.47,7.02,3.83,5.96.78-.25,3.43-2.73,3.79-2.35l-1.05,5.5c-2.96,1.87-13.3,6.36-9.3,10.99,2.65,3.07,5.46-.27,7.81-1.68.17.23-.3,5.01-.42,5.71-.22,1.23-4,2.34-5.36,3.11-2.71,1.53-7.77,4.45-3.97,7.92,3.39,3.1,5.66-1.72,8.91-1.92v10.8Z"/>
          <path class="cls-1" d="M187.14,361.65l.22-.85c11.38,1.5,23.28.99,34.65-.48,39.03-5.02,84.73-26.24,108.84-57.98.84-1.11,4.68-7.48,5.12-7.58.66-.16.87.56,1.14.97,5.41,8.31,9.22,22.83,9.65,32.69.05,1.11.2,1.95-.4,2.98-1.24,2.14-6.83,7.37-8.91,9.3-36.84,34.1-89.64,44.56-136.87,26.77-4.58-1.73-8.89-4.05-13.44-5.83Z"/>
          <path class="cls-1" d="M379.35,240.14l-7.97-15.52c-20.78-36.15-56.26-62.12-96.55-72.6.82-11.87,3.72-23.71,8.45-34.63,54.56,14.5,94.86,66.19,96.07,122.75Z"/>
        </g>
        <g>
          <g>
            <path class="cls-1" d="M85.37,217.07c-.11,1.58-.62,5.5-1.31,9.47-.68,3.97-1.44,7.45-1.9,9.21-.44,1.61-1.27,2.27-3.23,2.01-6.35-.85-15.07-2.35-24.18-3.91-9.11-1.57-17.83-3.06-24.09-4.38-1.93-.41-2.5-1.31-2.37-2.97.32-3.71,2.28-15.16,3.02-19.44.68-3.97,3.26-18.52,3.87-20.66.44-1.61,1.31-2.5,3.27-2.24,1.57.19,3.75.56,5.46.86,1.71.29,3.66.63,5.2.97,1.62.36,2.09.92,1.85,2.32l-3.25,18.92c-.12.7.15.99,1.24,1.18l4.36.75c1.09.19,1.29-.02,1.41-.72l2.96-17.21c.23-1.32.55-1.83,1.89-1.68,1.57.19,3.52.52,5.07.79,1.56.27,3.5.6,5.05.94,1.31.31,1.45.89,1.22,2.21l-2.96,17.21c-.12.7.15.99,1.24,1.18l13.78,2.37c1.95.33,2.53,1.16,2.4,2.82Z"/>
            <path class="cls-1" d="M114.87,140.03c.42.22.73.48.86.91.16.54.07,1.2-.42,2.29-.91,2.02-2.53,5.19-3.99,7.9s-3.07,5.7-4.44,7.74c-1.7,2.49-2.74,2.92-5.73,2.48l-13.51-2.08-1.31,2.43,12.1,6.52c1.74.94,1.99,1.97,1.34,3.51-.61,1.47-2.2,4.74-4.11,8.29-1.84,3.41-3.62,6.39-4.51,7.71-.93,1.39-1.93,1.74-3.7.88-5.74-2.83-13.39-6.95-21.67-11.41-8.14-4.38-15.85-8.54-21.38-11.79-1.7-1.01-1.95-2.04-1.3-3.57,1.45-3.35,6.89-13.61,11.08-21.4,2.89-5.35,6.28-11.33,8.77-15.11,5.12-7.83,8.76-7.75,20.65-1.35,10.64,5.73,12.29,8.33,10.59,14.32l17.5,1c1.9.13,2.64.43,3.19.73ZM76.34,147.26c-.72-.66-1.8-1.33-3.05-2-1.25-.67-2.4-1.2-3.35-1.45-1.23-.39-1.62-.33-2.18.71l-2.66,4.94c-.26.49.04.92,1.02,1.44l6.4,3.45c1.04.56,1.5.54,1.77.05l2.66-4.94c.56-1.04.4-1.4-.6-2.21Z"/>
            <path class="cls-1" d="M145.96,96.76c1.13,1.11,2.2,2.27,3.38,3.55,1.18,1.28,2.41,2.61,3.42,3.83,1.28,1.51,1.01,2.72-.11,3.96-1.58,1.78-12.74,12.17-15.82,15.01-3.19,2.94-13.48,12.42-16.42,14.7-1.33,1.01-2.39,1.02-3.79-.38-4.51-4.54-10.51-11.05-16.77-17.85-6.26-6.8-12.26-13.3-16.42-18.16-1.28-1.51-1.18-2.56-.07-3.81,2.52-2.75,12.8-12.22,15.99-15.17,3.08-2.84,14.34-13.11,16.24-14.54,1.33-1.01,2.56-1.18,3.96.21,1.13,1.11,2.36,2.44,3.54,3.72,1.18,1.28,2.25,2.44,3.26,3.66,1.07,1.27,1.09,2,.05,2.96l-16.9,15.58c-.52.48-.48.87.27,1.69l2.04,2.21c.75.81,1.03.77,1.55.29l15.74-14.51c.99-.91,1.55-1.11,2.52-.18,1.13,1.11,2.36,2.44,3.43,3.61,1.07,1.16,2.3,2.5,3.31,3.71.85,1.04.61,1.59-.38,2.5l-15.74,14.51c-.52.48-.48.87.27,1.69l2.03,2.21c.75.81,1.03.77,1.55.29l16.9-15.58c1.04-.96,1.77-.88,2.95.29Z"/>
            <path class="cls-1" d="M197.18,72.24c.73,1.41,1.38,2.84,2.1,4.42.72,1.58,1.47,3.24,2.06,4.71.75,1.83.11,2.9-1.34,3.73-2.06,1.2-15.9,7.59-19.71,9.32-3.95,1.8-16.68,7.6-20.19,8.85-1.58.54-2.59.22-3.48-1.54-2.87-5.72-6.53-13.78-10.36-22.19-3.83-8.41-7.5-16.46-9.93-22.38-.75-1.83-.32-2.8,1.12-3.64,3.25-1.83,15.97-7.62,19.93-9.42,3.81-1.74,17.72-7.98,19.97-8.74,1.58-.54,2.8-.32,3.69,1.44.73,1.4,1.48,3.06,2.2,4.64.72,1.58,1.38,3.02,1.96,4.49.62,1.54.41,2.24-.88,2.83l-20.92,9.53c-.65.29-.73.68-.27,1.69l1.24,2.73c.46,1.01.74,1.05,1.39.76l19.48-8.87c1.22-.56,1.82-.57,2.45.62.73,1.41,1.48,3.06,2.13,4.5.65,1.44,1.41,3.09,1.99,4.56.48,1.25.08,1.7-1.14,2.26l-19.48,8.87c-.65.29-.73.68-.27,1.69l1.24,2.73c.46,1.01.74,1.05,1.39.76l20.92-9.53c1.29-.59,1.95-.28,2.71,1.19Z"/>
            <path class="cls-1" d="M269.86,25.24c6.07.75,7.7,1.97,8.71,7.05.51,2.38,1.18,8.16,1.04,14.95-.03,1.5-.2,1.97-1.46,2.02-3.64.08-8.3,0-10.59-.05-1.66-.03-8.53-.17-10.42-.37-1.26-.1-1.42-.34-1.48-1.29-.06-.95.05-6.32-.08-7.59-.06-.79-.29-1.11-1.24-1.29-.39-.09-1.34-.18-1.97-.2-.63-.01-1.58.05-1.98.12-.79.14-1.19.37-1.29,1.24-.3,3.15-.39,7.74-.49,12.4-.08,4.19-.19,9.24-.01,12.41.06.87.45,1.12,1.24,1.29.39.09,1.34.18,1.97.2s1.58-.05,1.98-.12c.95-.14,1.19-.45,1.29-1.24.18-1.26.39-7.5.49-8.44.1-.95.26-1.18,1.53-1.23,1.9-.12,8.69.02,10.35.05,2.29.05,6.95.14,10.58.37,1.26.1,1.49.58,1.46,2.08-.29,6.79-1.14,13.41-1.74,15.77-1.21,5.03-2.89,6.18-8.98,6.69-4.2.39-12.42.54-17.23.44-5.13-.1-12.71-.57-17.2-1.13-6.07-.75-7.63-1.89-8.71-7.05-.79-3.81-1.43-11.33-1.25-20.57.18-9.24,1.13-16.73,2.07-20.5,1.29-5.35,3.21-6.18,8.98-6.69,4.2-.39,12.42-.54,17.23-.44,4.82.1,13.03.58,17.2,1.13Z"/>
            <path class="cls-1" d="M319.65,36.67c1.55.62,2.1,1.53,1.62,3.45-1.58,6.2-4.09,14.69-6.7,23.55-2.66,9.02-5.12,17.35-7.16,23.42-.63,1.87-1.59,2.33-3.23,2.01-1.56-.3-5.77-1.37-9.56-2.49-3.79-1.12-7.91-2.5-9.38-3.1-1.55-.62-2.1-1.53-1.62-3.44,1.58-6.2,4.04-14.54,6.7-23.55,2.62-8.86,5.12-17.35,7.16-23.42.63-1.87,1.59-2.33,3.23-2.01,1.56.3,5.77,1.37,9.56,2.49s7.91,2.5,9.38,3.1Z"/>
            <path class="cls-1" d="M382.41,72.39c-.75,1.4-2.25,3.9-3.06,5.26-.81,1.35-2.32,3.86-3.2,5.18-1.08,1.65-2.48,1.83-4.17.81-2.1-1.26-6.83-4.28-9.6-5.95l-4.96,8.26c-4.84,8.06-9.31,15.51-12.81,20.87-1.08,1.65-2.13,1.86-3.63,1.14-1.44-.68-4.97-2.62-8.36-4.65-3.39-2.03-6.76-4.24-8.03-5.19-1.34-.99-1.65-2.01-.7-3.74,3.09-5.61,7.57-13.06,12.41-21.12l4.96-8.26c-2.78-1.67-7.67-4.42-9.77-5.68-1.69-1.02-2.19-2.33-1.24-4.07.75-1.4,2.25-3.9,3.06-5.26.81-1.35,2.32-3.86,3.2-5.17,1.08-1.65,2.4-1.69,3.83-1.02,2.02.94,13.23,7.58,20.75,12.09,7.45,4.47,18.61,11.36,20.42,12.64,1.27.95,1.85,2.13.91,3.86h0Z"/>
            <path class="cls-1" d="M411.31,97.43c1.05,1.29,1.1,2.35-.25,3.8-4.39,4.66-10.69,10.87-17.28,17.36-6.69,6.6-12.88,12.7-17.61,17.02-1.46,1.33-2.52,1.27-3.8.19-1.22-1.01-4.38-4-7.16-6.81-2.77-2.81-5.71-6.02-6.71-7.25-1.05-1.29-1.1-2.35.25-3.8,4.39-4.66,10.58-10.76,17.28-17.36,6.58-6.49,12.88-12.7,17.61-17.02,1.46-1.33,2.52-1.27,3.8-.2,1.22,1.01,4.38,4,7.15,6.81,2.77,2.81,5.71,6.02,6.71,7.25Z"/>
            <path class="cls-1" d="M414.35,176.88c-1.33.86-2.69,1.66-4.19,2.53-1.5.87-3.07,1.79-4.48,2.51-1.75.93-2.88.39-3.85-.96-1.4-1.93-9.13-15.07-11.24-18.69-2.19-3.76-9.22-15.84-10.81-19.21-.7-1.51-.48-2.55,1.19-3.61,5.41-3.42,13.06-7.87,21.05-12.52,7.99-4.65,15.64-9.1,21.29-12.11,1.75-.92,2.76-.6,3.73.76,2.14,3.05,9.17,15.14,11.35,18.89,2.11,3.62,9.7,16.84,10.69,19.01.7,1.51.6,2.76-1.07,3.82-1.33.86-2.9,1.78-4.4,2.65s-2.87,1.67-4.27,2.39c-1.47.77-2.19.63-2.91-.6l-11.56-19.87c-.36-.61-.75-.66-1.71-.1l-2.6,1.51c-.96.56-.97.84-.62,1.45l10.76,18.51c.67,1.16.75,1.76-.37,2.5-1.33.86-2.9,1.78-4.26,2.57-1.37.79-2.94,1.71-4.34,2.43-1.2.61-1.68.25-2.36-.91l-10.76-18.51c-.36-.61-.75-.66-1.71-.1l-2.59,1.51c-.96.56-.97.84-.62,1.45l11.56,19.87c.72,1.23.48,1.92-.92,2.82Z"/>
            <path class="cls-1" d="M422.1,209.7c.52,2.63,1.11,2.76,2.68,2.53,1.64-.25,4.74-.86,6.99-1.31,1.08-.22,1.19-.48,1.05-1.18-.43-2.17-4.88-24.96-5.05-26.22-.2-1.41.37-2.17,1.91-2.55,2.84-.72,8.8-1.91,12.44-2.63,12.86-2.56,15.76-.96,18.33,7.55.94,3.11,2.93,11.5,3.72,15.45.79,3.95,2.08,12.07,2.4,15.31.87,8.85-1.5,11.9-13.97,14.37-1.94.38-2.31.14-2.79-1.46-.48-1.6-1.51-6.79-2.03-9.42-.52-2.63-1.66-8.37-1.86-10.18-.14-1.5-.08-1.6,1.23-1.94l2.37-.63c1.69-.42,1.88-1.1,1.41-3.42-.54-2.71-1.11-2.76-2.68-2.53-1.64.25-4.74.86-6.21,1.15-1.09.22-1.19.48-1.06,1.18.43,2.17,4.88,24.96,5.05,26.22.2,1.41-.37,2.17-1.91,2.55-2.84.73-9.58,2.06-13.22,2.79-12.86,2.56-15.72,1.11-18.3-7.4-.94-3.11-2.96-11.65-3.75-15.6-.77-3.87-2.08-12.07-2.4-15.31-.87-8.85,1.11-11.82,14.75-14.53,1.94-.38,2.31-.14,2.79,1.46s1.51,6.79,2.03,9.42c.52,2.63,1.66,8.37,1.86,10.18.14,1.5.08,1.6-1.23,1.94l-3.15.79c-1.69.42-1.88,1.1-1.41,3.42Z"/>
          </g>
          <g>
            <g>
              <path class="cls-1" d="M53.31,293.92c.32,1.35.63,1.41,1.43,1.26.84-.16,2.44-.54,3.59-.81.56-.13.61-.27.52-.63-.27-1.11-3.01-12.82-3.12-13.47-.13-.73.15-1.13.94-1.36,1.45-.43,4.52-1.16,6.39-1.6,6.61-1.57,8.13-.8,9.63,3.56.55,1.59,1.74,5.89,2.22,7.92.48,2.03,1.31,6.21,1.54,7.87.62,4.56-.55,6.18-6.95,7.71-1,.24-1.19.12-1.47-.7-.28-.82-.91-3.48-1.23-4.84-.32-1.35-1.02-4.3-1.16-5.24-.1-.77-.07-.82.6-1.02l1.21-.37c.87-.25.95-.6.67-1.8-.33-1.39-.63-1.41-1.43-1.26-.85.16-2.44.54-3.19.72-.56.13-.61.27-.52.63.27,1.11,3.01,12.82,3.12,13.47.13.73-.15,1.13-.94,1.36-1.45.43-4.92,1.25-6.79,1.7-6.61,1.57-8.12.88-9.61-3.47-.55-1.59-1.76-5.97-2.24-8-.47-1.99-1.31-6.21-1.54-7.88-.62-4.56.35-6.14,7.35-7.8.99-.24,1.19-.12,1.47.7.28.82.91,3.48,1.23,4.84.32,1.35,1.02,4.3,1.16,5.23.1.78.07.82-.6,1.03l-1.61.47c-.87.25-.95.6-.67,1.8Z"/>
              <path class="cls-1" d="M60.26,333.96c-.43-.7-1.37-2.47-2.27-4.36-.87-1.81-1.66-3.65-1.94-4.42-.3-.81-.14-1.34.76-1.82,2.94-1.54,6.99-3.48,11.38-5.58,4.32-2.07,8.41-4.02,11.45-5.34.94-.4,1.49-.21,1.89.54.92,1.64,3.56,6.96,5.71,11.46,1.18,2.47,2.68,5.79,3.5,7.98,1.71,4.53.83,5.91-6.25,9.29-6.79,3.25-8.69,3.16-11.12-.98-1.19-2.01-2.87-5.25-4.06-7.72l-.6-1.25c-.12-.26-.29-.32-.55-.19l-6.05,2.89c-.92.44-1.43.23-1.88-.51ZM79.28,326.22l-3.54,1.7c-.55.26-.68.46-.56.72l1.11,2.32c.26.55.47.59,1.11.42.5-.1,1.18-.38,1.84-.7s1.31-.67,1.7-.99c.54-.39.63-.57.37-1.13l-1.11-2.32c-.12-.26-.4-.26-.92-.02Z"/>
              <path class="cls-1" d="M112.35,363.43c1.57,2.56,1.82,3.61,0,5.8-1.28,1.56-4.09,4.26-7.88,7.2-3.78,2.93-7.1,4.99-8.93,5.84-2.57,1.22-3.53.72-5.62-1.44-1.52-1.56-4.26-4.82-5.79-6.79-1.53-1.97-4.01-5.43-5.14-7.29-1.57-2.56-1.82-3.61,0-5.8,1.28-1.56,4.09-4.26,7.88-7.2,3.78-2.93,7.1-4.99,8.93-5.84,2.57-1.22,3.53-.72,5.62,1.44,1.52,1.56,4.26,4.82,5.79,6.79s4.01,5.43,5.14,7.3ZM100.64,359.94c-.32-.27-.54-.36-.92-.12-1.37.91-3.34,2.43-5.15,3.84s-3.78,2.93-5,4.04c-.36.33-.3.54-.12.92.12.22.36.6.56.86.2.26.51.59.69.76.32.27.54.36.92.11,1.37-.91,3.34-2.44,5.15-3.84,1.81-1.4,3.78-2.93,5-4.03.36-.33.3-.54.12-.92-.12-.22-.36-.6-.56-.86-.2-.26-.53-.62-.69-.76Z"/>
              <path class="cls-1" d="M127.05,414.38c-.16.19-.32.32-.55.34-.29.03-.62-.09-1.11-.46-.93-.67-2.36-1.83-3.59-2.85-1.22-1.03-2.57-2.16-3.46-3.07-1.08-1.12-1.19-1.7-.65-3.17l2.47-6.63-1.1-.92-4.58,5.45c-.66.78-1.21.8-1.92.31-.68-.46-2.17-1.61-3.77-2.95-1.53-1.29-2.86-2.51-3.43-3.1-.6-.61-.68-1.16-.05-1.97,2.04-2.62,4.93-6.06,8.06-9.79,3.08-3.66,6-7.14,8.22-9.59.69-.76,1.24-.77,1.95-.29,1.54,1.08,6.17,4.92,9.68,7.87,2.41,2.03,5.08,4.38,6.74,6.03,3.43,3.42,3.01,5.25-1.49,10.61-4.02,4.79-5.51,5.35-8.37,3.86l-2.34,8.77c-.27.95-.5,1.29-.71,1.54ZM127.44,394.09c.41-.3.86-.77,1.34-1.34.47-.56.86-1.09,1.08-1.54.33-.58.34-.78-.13-1.18l-2.22-1.87c-.22-.18-.47-.08-.84.36l-2.42,2.88c-.39.47-.43.71-.21.89l2.22,1.87c.47.39.67.35,1.18-.08Z"/>
              <path class="cls-1" d="M174.7,412.07c-.35.74-1.07,2.07-1.46,2.79s-1.11,2.05-1.53,2.75c-.52.88-1.24,1-2.14.52-1.12-.6-3.63-2.05-5.11-2.85l-2.37,4.39c-2.31,4.28-4.45,8.24-6.13,11.1-.52.88-1.06,1.01-1.85.67-.76-.32-2.63-1.24-4.43-2.21-1.8-.97-3.6-2.03-4.28-2.5-.72-.48-.9-1-.45-1.92,1.46-2.97,3.6-6.93,5.91-11.22l2.37-4.39c-1.48-.8-4.07-2.1-5.19-2.71-.9-.49-1.19-1.15-.74-2.07.35-.74,1.07-2.07,1.46-2.79.39-.72,1.11-2.05,1.53-2.75.52-.88,1.2-.93,1.96-.62,1.07.44,7.02,3.61,11.02,5.76,3.96,2.14,9.9,5.43,10.86,6.05.68.46,1.01,1.06.56,1.98h0Z"/>
              <path class="cls-1" d="M190.57,438.92c1.33.4,1.53.16,1.8-.62.28-.81.75-2.38,1.09-3.52.16-.55.07-.66-.28-.77-1.1-.33-12.62-3.79-13.23-4.01-.69-.25-.9-.7-.71-1.49.35-1.47,1.25-4.49,1.8-6.34,1.93-6.51,3.36-7.45,7.88-6.57,1.65.32,5.98,1.43,7.97,2.03,2,.59,6.03,1.96,7.59,2.59,4.26,1.74,5.09,3.56,3.21,9.87-.29.98-.5,1.09-1.34.93-.85-.17-3.47-.95-4.81-1.34s-4.24-1.26-5.11-1.61c-.72-.3-.75-.35-.59-1.03l.28-1.24c.22-.87-.05-1.12-1.23-1.47-1.37-.41-1.53-.16-1.8.62-.28.81-.75,2.38-.97,3.12-.16.55-.07.66.28.77,1.1.33,12.62,3.79,13.23,4.01.69.25.9.69.71,1.49-.35,1.47-1.37,4.89-1.91,6.73-1.93,6.51-3.29,7.47-7.81,6.6-1.65-.32-6.05-1.46-8.05-2.05-1.96-.58-6.03-1.96-7.59-2.6-4.26-1.74-5.15-3.36-3.1-10.26.29-.98.49-1.09,1.34-.92.85.17,3.47.95,4.81,1.34,1.33.4,4.24,1.26,5.11,1.6.72.3.75.35.59,1.03l-.4,1.63c-.22.88.05,1.12,1.23,1.47Z"/>
              <path class="cls-1" d="M256.12,425.24c.73-.1,2.86-.23,4.29-.26,1.76-.04,3.72,0,4.42.06.74.06,1.07.42,1.14,1.44.2,3.31.31,7.85.42,12.72.11,4.79.22,9.37.17,12.68-.02,1.02-.29,1.4-1.03,1.5-.73.1-2.74.23-4.45.27-1.47.04-2.5.02-3.19-.05-2.01-.16-2.42-.39-3.4-1.93l-5.65-8.71.22,9.28c.02,1.02-.25,1.4-1.03,1.5-.73.1-2.86.23-4.29.26-1.76.04-3.72,0-4.42-.06-.74-.06-1.07-.42-1.14-1.45-.2-3.31-.31-7.81-.42-12.68-.11-4.79-.22-9.37-.17-12.68.02-1.02.42-1.4,1.27-1.5.82-.1,3.02-.23,4.33-.27,1.06-.02,2.37-.01,2.86.01,2.01.16,2.42.43,3.4,1.97l5.86,9.03-.23-9.65c-.02-1.02.25-1.4,1.03-1.5Z"/>
              <path class="cls-1" d="M305.9,438.79c.23.79.41,1.58.62,2.46.21.88.42,1.79.57,2.6.19,1-.24,1.48-1.06,1.76-1.17.4-8.84,2.25-10.96,2.74-2.19.51-9.24,2.17-11.15,2.45-.85.12-1.34-.15-1.61-1.13-.88-3.2-1.92-7.66-3.02-12.32-1.09-4.66-2.14-9.12-2.78-12.37-.19-1,.12-1.46.94-1.73,1.83-.6,8.88-2.25,11.07-2.77,2.11-.5,9.81-2.26,11.03-2.42.85-.12,1.46.12,1.73,1.11.23.79.44,1.7.65,2.58.21.88.39,1.67.54,2.48.16.85-.02,1.18-.73,1.35l-11.59,2.72c-.36.08-.44.27-.31.83l.36,1.51c.13.56.27.61.63.52l10.79-2.54c.68-.16.98-.1,1.18.56.23.79.44,1.7.63,2.5.19.8.4,1.71.55,2.52.12.69-.13.87-.81,1.03l-10.79,2.54c-.36.08-.44.27-.31.83l.36,1.51c.13.56.27.61.63.52l11.59-2.72c.72-.17,1.02.05,1.26.88Z"/>
              <path class="cls-1" d="M334.97,404.74c.38.73,1.01,2.1,1.35,2.84.34.74.98,2.12,1.28,2.88.39.95.06,1.59-.87,2.02-1.15.53-3.82,1.67-5.35,2.37l2.09,4.53c2.04,4.42,3.92,8.51,5.19,11.57.39.95.17,1.45-.57,1.88-.71.42-2.57,1.36-4.43,2.22-1.86.86-3.79,1.65-4.56,1.92-.81.28-1.34.12-1.8-.79-1.5-2.96-3.38-7.04-5.41-11.47l-2.09-4.53c-1.52.7-4.13,1.99-5.28,2.52-.93.43-1.64.26-2.1-.65-.38-.73-1.01-2.1-1.35-2.84-.34-.74-.97-2.12-1.28-2.88-.39-.95-.02-1.52.68-1.94.99-.59,7.1-3.45,11.23-5.35,4.09-1.88,10.29-4.65,11.36-5.05.78-.27,1.45-.17,1.92.74h0Z"/>
              <path class="cls-1" d="M367.34,379.38c.56-.55,1.84-1.63,3.34-2.83,1.47-1.18,3.18-2.44,3.84-2.86.66-.42,1.17-.31,1.63.27.38.48,1,1.51,1.88,3l11.49,19.25c.52.84.35,1.55-.26,2.1-1.48,1.29-3.88,3.21-5.79,4.74-1.92,1.53-2.97,2.38-4.55,3.54-.7.5-1.39.49-2.1-.2l-11.31-11.43-.13.1,8.69,13.53c.52.84.38,1.53-.26,2.1-1.48,1.29-2.53,2.14-4.45,3.67s-4.31,3.45-5.89,4.62c-.66.48-1.39.49-2.1-.2l-16.28-15.42c-1.27-1.19-2.13-2.01-2.52-2.49-.46-.58-.46-1.1.09-1.65s2.16-1.94,3.63-3.12c1.5-1.2,2.83-2.22,3.49-2.64,1.13-.75,1.5-.68,2.54.43l10.98,11.75.13-.1-8.33-14.39c-.54-.93-.52-1.37.04-1.91.52-.52,1.88-1.71,3.34-2.89,1.47-1.18,2.92-2.24,3.55-2.64.66-.42,1.09-.35,1.88.38l12.23,11.27.13-.1-9.07-13.28c-.85-1.26-.84-1.63.14-2.57Z"/>
              <path class="cls-1" d="M394.54,347.94c2.07-2.18,3.02-2.69,5.61-1.49,1.83.83,5.18,2.86,8.99,5.75,3.81,2.9,6.66,5.57,7.95,7.12,1.84,2.17,1.61,3.22.06,5.8-1.12,1.87-3.56,5.36-5.07,7.34-1.51,1.99-4.21,5.27-5.72,6.85-2.07,2.18-3.02,2.69-5.6,1.49-1.84-.83-5.18-2.86-8.99-5.75s-6.66-5.57-7.95-7.12c-1.84-2.17-1.61-3.23-.06-5.8,1.12-1.87,3.56-5.36,5.07-7.35s4.21-5.27,5.72-6.85ZM394.19,360.16c-.18.38-.21.61.12.92,1.23,1.09,3.21,2.6,5.04,3.98,1.82,1.39,3.81,2.9,5.19,3.79.42.26.6.15.92-.12.18-.17.49-.5.68-.76.2-.26.44-.64.55-.87.18-.38.21-.61-.12-.92-1.23-1.09-3.21-2.6-5.04-3.98-1.82-1.39-3.81-2.9-5.19-3.79-.42-.26-.6-.15-.92.12-.18.17-.49.5-.68.76-.2.26-.46.68-.55.86Z"/>
              <path class="cls-1" d="M439.93,320.54c.22.1.39.23.47.44.1.27.07.62-.15,1.19-.41,1.07-1.15,2.76-1.82,4.21s-1.42,3.04-2.06,4.14c-.8,1.34-1.33,1.59-2.89,1.45l-7.04-.67-.6,1.3,6.45,3.01c.93.43,1.09.96.8,1.77-.27.78-.99,2.52-1.87,4.41-.85,1.82-1.68,3.42-2.1,4.12-.44.74-.94.96-1.89.56-3.06-1.29-7.13-3.19-11.55-5.24-4.34-2.02-8.45-3.94-11.41-5.45-.91-.47-1.07-1-.78-1.81.65-1.77,3.15-7.24,5.08-11.4,1.33-2.85,2.91-6.05,4.08-8.07,2.41-4.2,4.29-4.27,10.63-1.32,5.67,2.64,6.61,3.93,5.91,7.08h9.08c.99,0,1.38.13,1.67.27ZM420.23,325.44c-.39-.32-.97-.63-1.64-.94-.67-.31-1.28-.55-1.77-.64-.64-.17-.84-.12-1.1.43l-1.23,2.63c-.12.26.05.47.57.72l3.41,1.59c.56.26.79.23.91-.03l1.23-2.63c.26-.56.16-.74-.38-1.13Z"/>
              <path class="cls-1" d="M451.11,277.55c.24.05.43.14.55.33.16.24.2.59.11,1.2-.17,1.14-.5,2.78-.84,4.34-.35,1.56-.82,3.67-1.22,4.88-.5,1.48-.93,1.89-2.52,2.08l-10.8,1.27,10.5,2.35c1,.22,1.28.66,1.17,1.52-.1.82-.46,2.83-.92,4.87-.45,2-.97,3.97-1.23,4.75-.27.82-.72,1.14-1.72.96-3.26-.6-7.65-1.58-12.4-2.65-4.67-1.04-9.14-2.04-12.35-2.89-.99-.26-1.26-.74-1.15-1.6.1-.82.46-2.83.91-4.83.46-2.04.98-4.01,1.24-4.79.27-.82.71-1.1,1.71-.88l10.5,2.35-9.23-5.75c-1.36-.85-1.57-1.4-1.39-2.95.16-1.26.63-3.38.98-4.94.35-1.56.75-3.18,1.08-4.29.17-.59.37-.88.61-1.04.2-.12.4-.12.64-.07.32.07.7.24,1.5.8l10.25,7.2,12.34-2.14c.96-.16,1.38-.15,1.7-.08Z"/>
            </g>
            <path class="cls-1" d="M411.25,269.76c-12.98,78.73-81.36,138.77-163.76,138.77s-150.77-60.05-163.75-138.77h-5.85c2.16,13.61,5.96,26.87,11.36,39.66,8.65,20.45,21.03,38.81,36.81,54.58,15.77,15.77,34.13,28.15,54.59,36.81,21.18,8.96,43.67,13.5,66.84,13.5s45.68-4.54,66.85-13.5c20.45-8.65,38.81-21.03,54.59-36.81,15.76-15.76,28.14-34.13,36.8-54.58,5.41-12.79,9.21-26.05,11.37-39.66h-5.85Z"/>
            <path class="cls-1" d="M462.09,269.76c-11.74,108.12-103.33,192.29-214.59,192.29S44.66,377.88,32.91,269.76h-5.82c2.28,21.6,7.7,42.6,16.19,62.69,11.17,26.39,27.15,50.09,47.49,70.44,20.36,20.36,44.06,36.33,70.45,47.5,27.33,11.55,56.36,17.42,86.27,17.42s58.94-5.86,86.27-17.42c26.4-11.17,50.1-27.15,70.45-47.5,20.35-20.35,36.33-44.05,47.49-70.44,8.5-20.09,13.91-41.09,16.19-62.69h-5.82Z"/>
            <path class="cls-1" d="M448.08,254.87l-4,1.03c-.07.02-.11.09-.09.16l1.11,3.98c.28.99-.95,1.69-1.66.96l-2.89-2.95c-.05-.05-.14-.05-.19,0l-2.89,2.95c-.72.73-1.94.03-1.66-.96l1.11-3.98c.02-.07-.02-.14-.09-.16l-4-1.03c-.99-.25-.99-1.67,0-1.92l4-1.03c.07-.02.11-.09.09-.16l-1.11-3.98c-.28-.99.95-1.69,1.66-.96l2.89,2.95c.05.05.14.05.19,0l2.89-2.95c.72-.73,1.94-.03,1.66.96l-1.11,3.98c-.02.07.02.14.09.16l4,1.03c.99.25.99,1.67,0,1.92Z"/>
            <path class="cls-1" d="M63.58,254.86l-4.03,1.03c-.07.02-.11.09-.09.16l1.12,4c.27.98-.94,1.68-1.65.95l-2.91-2.97c-.05-.05-.14-.05-.19,0l-2.91,2.97c-.71.73-1.93.03-1.65-.95l1.12-4c.02-.07-.02-.14-.09-.16l-4.03-1.03c-.99-.25-.99-1.66,0-1.91l4.03-1.03c.07-.02.11-.09.09-.16l-1.12-4c-.27-.98.94-1.68,1.65-.95l2.91,2.97c.05.05.14.05.19,0l2.91-2.97c.71-.73,1.93-.03,1.65.95l-1.12,4c-.02.07.02.14.09.16l4.03,1.03c.99.25.99,1.66,0,1.91Z"/>
          </g>
        </g>
      </g>
    </g>
  </g>
</svg>