<?xml version="1.0" encoding="UTF-8"?>
<svg id="Layer_2" data-name="Layer 2" xmlns="http://www.w3.org/2000/svg" viewBox="0 0 299.69 299.69">
  <defs>
    <style>
      .cls-1 {
        fill: #fff;
      }
    </style>
  </defs>
  <g id="Layer_1-2" data-name="Layer 1">
    <g>
      <path d="M299.69,149.84c0,82.76-67.09,149.84-149.84,149.84S0,232.6,0,149.84,67.09,0,149.84,0s149.84,67.09,149.84,149.84ZM89.27,56.5c2.38-.1,4.81,0,7.2,0,.3,0,2.15,2.21,2.26,2.85,1.13,6.24-9.71,3.57-12.98,5.27l-1.78,7.33c.07,1.29,11.69-2.97,12.28,3.01s-10.09,3.22-13.55,5.03l-1.68,8.48c.65,1.04.89.2,1.04.2h9.74c.87,0,2.17,1.83,2.31,2.78.97,6.58-9.84,3.53-13.53,4.84v11.43c3.14.11,11.64-2.92,12.62,1.58,1.42,6.5-8.62,4.3-12.01,6.01.1,5.61,1.03,11.47,2.07,17.04,2.51,13.44,7.07,26.42,12.59,38.87,23.98-7.93,46.3-20.33,66.68-35.12l.61-1.08c-1.48-26.74-2.53-54.19.92-80.8,1.54-11.88,4.37-23.32,8.41-34.57-20.86-3.01-42.91-2.15-62.99,4.54-3.16,1.05-5.04,1.14-7.05,3.96-2.98,4.19-5.04,9.4-7.87,13.73,2.68.39,6.27-.45,7.03,3.15,1.18,5.58-7.61,3.88-10.74,5.2-.33,1.97-1.96,4.17-2.22,6.04-.18,1.29.51.22.64.21ZM281.7,145.83c-1.2-56.56-41.5-108.25-96.07-122.75-4.73,10.92-7.63,22.76-8.45,34.63,40.29,10.47,75.78,36.45,96.55,72.6l7.97,15.52ZM67.46,111.33v-10.8c-3.25.2-5.52,5.02-8.91,1.92-3.8-3.48,1.25-6.39,3.97-7.92,1.36-.77,5.14-1.87,5.36-3.11.13-.7.59-5.48.42-5.71-2.35,1.41-5.16,4.75-7.81,1.68-4-4.63,6.34-9.12,9.3-10.99l1.05-5.5c-.36-.37-3.01,2.11-3.79,2.35-3.36,1.06-6.17-3.21-3.83-5.96,1.65-1.94,9.86-5.85,10.2-6.41.41-.67.31-1.92.81-2.68-1.01-.05-1.41.94-2.42,1.18-4.37,1.02-6.37-3.1-3.32-6.28,2.21-2.3,8.6-4.9,9.73-6.36.44-.56,4.38-9.71,4.04-10.14C34.51,64.69,8.52,122.96,20.97,177.51c20.55,4.37,41.96,2.93,62.16-2.47-7.85-17.55-13.02-36.28-15.02-55.47-.36-.68-2.35.62-2.91.92-1.58.84-5.01,3.65-6.45,3.74-1.12.08-3.17-1.39-3.48-2.41-1.58-5.23,8.89-8.32,12.19-10.5ZM260.54,220.78c3.74-4.68,6.88-10.74,9.38-16.23,2.39-5.23,8.28-19.85,8.41-25.07.05-2.11-1.62-7.27-2.25-9.6-13.44-49.24-51.46-85.21-100.22-98.98-1.45,13.91-.63,28.09-.87,42.15l1.36,20.87c37.14,16.5,75.52,44.74,84.19,86.86ZM25.12,191.56c2.33,9.1,6.84,18.17,11.68,26.21,5.2,8.66,15.61,23.58,24.58,27.92,44.57,21.56,113.99-.1,148.99-32.11,7.69-7.03,15.18-15.98,19.27-25.61-6.85-8.78-15.78-16.52-24.86-23.01-10.35-7.39-21.69-13.73-33.34-18.71-5.08,2.9-9.72,6.71-14.67,9.91-34.25,22.17-74.74,38.02-116.2,37.1l-15.43-1.71ZM89.48,267.34c4.56,1.77,8.86,4.1,13.44,5.83,47.23,17.78,100.03,7.32,136.87-26.77,2.08-1.93,7.67-7.15,8.91-9.3.6-1.03.44-1.87.4-2.98-.43-9.86-4.24-24.38-9.65-32.69-.27-.41-.48-1.13-1.14-.97-.44.11-4.28,6.48-5.12,7.58-24.11,31.74-69.81,52.96-108.84,57.98-11.38,1.46-23.27,1.98-34.65.48l-.22.85Z"/>
      <path class="cls-1" d="M25.12,191.56l15.43,1.71c41.46.92,81.95-14.93,116.2-37.1,4.95-3.2,9.59-7.01,14.67-9.91,11.66,4.98,22.99,11.31,33.34,18.71,9.08,6.49,18.01,14.23,24.86,23.01-4.09,9.63-11.58,18.58-19.27,25.61-35,32-104.42,53.67-148.99,32.11-8.97-4.34-19.38-19.26-24.58-27.92-4.83-8.04-9.35-17.12-11.68-26.21Z"/>
      <path class="cls-1" d="M89.27,56.5c-.13,0-.82,1.07-.64-.21.26-1.87,1.89-4.07,2.22-6.04,3.13-1.32,11.92.38,10.74-5.2-.76-3.6-4.35-2.77-7.03-3.15,2.83-4.33,4.89-9.53,7.87-13.73,2.01-2.83,3.89-2.91,7.05-3.96,20.08-6.69,42.13-7.56,62.99-4.54-4.04,11.24-6.87,22.68-8.41,34.57-3.45,26.61-2.4,54.07-.92,80.8l-.61,1.08c-20.38,14.79-42.7,27.19-66.68,35.12-5.51-12.45-10.08-25.43-12.59-38.87-1.04-5.58-1.96-11.44-2.07-17.04,3.39-1.71,13.43.49,12.01-6.01-.98-4.49-9.48-1.47-12.62-1.58v-11.43c3.69-1.3,14.5,1.74,13.53-4.84-.14-.95-1.43-2.78-2.31-2.78h-9.74c-.16,0-.4.83-1.04-.2l1.68-8.48c3.45-1.81,14.14.92,13.55-5.03s-12.21-1.72-12.28-3.01l1.78-7.33c3.27-1.7,14.12.97,12.98-5.27-.12-.64-1.96-2.85-2.26-2.85-2.39,0-4.81-.1-7.2,0Z"/>
      <path class="cls-1" d="M260.54,220.78c-8.67-42.12-47.05-70.37-84.19-86.86l-1.36-20.87c.24-14.05-.58-28.24.87-42.15,48.76,13.77,86.78,49.74,100.22,98.98.63,2.33,2.3,7.49,2.25,9.6-.13,5.22-6.02,19.85-8.41,25.07-2.51,5.49-5.64,11.55-9.38,16.23Z"/>
      <path class="cls-1" d="M67.46,111.33c-3.3,2.17-13.77,5.27-12.19,10.5.31,1.02,2.36,2.49,3.48,2.41,1.43-.1,4.86-2.9,6.45-3.74.56-.3,2.55-1.6,2.91-.92,2,19.19,7.17,37.92,15.02,55.47-20.2,5.4-41.61,6.83-62.16,2.47-12.44-54.55,13.54-112.82,61.31-140.91.34.42-3.6,9.57-4.04,10.14-1.13,1.45-7.52,4.05-9.73,6.36-3.05,3.18-1.06,7.3,3.32,6.28,1-.23,1.4-1.22,2.42-1.18-.51.76-.4,2.01-.81,2.68-.35.56-8.55,4.47-10.2,6.41-2.34,2.75.47,7.02,3.83,5.96.78-.25,3.43-2.73,3.79-2.35l-1.05,5.5c-2.96,1.87-13.3,6.36-9.3,10.99,2.65,3.07,5.46-.27,7.81-1.68.17.23-.3,5.01-.42,5.71-.22,1.23-4,2.34-5.36,3.11-2.71,1.53-7.77,4.45-3.97,7.92,3.39,3.1,5.66-1.72,8.91-1.92v10.8Z"/>
      <path class="cls-1" d="M89.48,267.34l.22-.85c11.38,1.5,23.28.99,34.65-.48,39.03-5.02,84.73-26.24,108.84-57.98.84-1.11,4.68-7.48,5.12-7.58.66-.16.87.56,1.14.97,5.41,8.31,9.22,22.83,9.65,32.69.05,1.11.2,1.95-.4,2.98-1.24,2.14-6.83,7.37-8.91,9.3-36.84,34.1-89.64,44.56-136.87,26.77-4.58-1.73-8.89-4.05-13.44-5.83Z"/>
      <path class="cls-1" d="M281.7,145.83l-7.97-15.52c-20.78-36.15-56.26-62.12-96.55-72.6.82-11.87,3.72-23.71,8.45-34.63,54.56,14.5,94.86,66.19,96.07,122.75Z"/>
    </g>
  </g>
</svg>