<?xml version="1.0" encoding="UTF-8"?>
<svg id="Layer_2" data-name="Layer 2" xmlns="http://www.w3.org/2000/svg" viewBox="0 0 299.69 299.69">
  <defs>
    <style>
      .cls-1 {
        fill: #fff;
      }
    </style>
  </defs>
  <g id="Layer_1-2" data-name="Layer 1">
    <g>
      <path d="M149.84,0c82.76,0,149.84,67.09,149.84,149.84,0,82.76-67.09,149.84-149.84,149.84C67.09,299.69,0,232.6,0,149.84,0,67.09,67.09,0,149.84,0ZM211.06,56.28c-.26-1.87-1.89-4.07-2.22-6.04-3.13-1.32-11.92.38-10.74-5.2.76-3.6,4.35-2.77,7.03-3.15-2.83-4.33-4.89-9.53-7.87-13.73-2.01-2.83-3.89-2.91-7.05-3.96-20.08-6.69-42.13-7.56-62.99-4.54,4.04,11.24,6.87,22.68,8.41,34.57,3.45,26.61,2.4,54.07.92,80.8l.61,1.08c20.38,14.79,42.7,27.19,66.68,35.12,5.51-12.45,10.08-25.43,12.59-38.87,1.04-5.58,1.96-11.44,2.07-17.04-3.39-1.71-13.43.49-12.01-6.01.98-4.49,9.48-1.47,12.62-1.58v-11.43c-3.69-1.3-14.5,1.74-13.53-4.84.14-.95,1.43-2.78,2.31-2.78h9.74c.16,0,.4.83,1.04-.2l-1.68-8.48c-3.45-1.81-14.14.92-13.55-5.03s12.21-1.72,12.28-3.01l-1.78-7.33c-3.27-1.7-14.12.97-12.98-5.27.12-.64,1.96-2.85,2.26-2.85,2.39,0,4.81-.1,7.2,0,.13,0,.82,1.07.64-.21ZM25.96,130.31c20.78-36.15,56.26-62.12,96.55-72.6-.82-11.87-3.72-23.71-8.45-34.63C59.49,37.58,19.19,89.27,17.99,145.83l7.97-15.52ZM244.42,121.82c-.31,1.02-2.36,2.49-3.48,2.41-1.43-.1-4.86-2.9-6.45-3.74-.56-.3-2.55-1.6-2.91-.92-2,19.19-7.17,37.92-15.02,55.47,20.2,5.4,41.61,6.83,62.16,2.47,12.44-54.55-13.54-112.82-61.31-140.91-.34.42,3.6,9.57,4.04,10.14,1.13,1.45,7.52,4.05,9.73,6.36,3.05,3.18,1.06,7.3-3.32,6.28-1-.23-1.4-1.22-2.42-1.18.51.76.4,2.01.81,2.68.35.56,8.55,4.47,10.2,6.41,2.34,2.75-.47,7.02-3.83,5.96-.78-.25-3.43-2.73-3.79-2.35l1.05,5.5c2.96,1.87,13.3,6.36,9.3,10.99-2.65,3.07-5.46-.27-7.81-1.68-.17.23.3,5.01.42,5.71.22,1.23,4,2.34,5.36,3.11,2.71,1.53,7.77,4.45,3.97,7.92-3.39,3.1-5.66-1.72-8.91-1.92v10.8c3.3,2.17,13.77,5.27,12.19,10.5ZM123.34,133.91l1.36-20.87c-.24-14.05.58-28.24-.87-42.15-48.76,13.77-86.78,49.74-100.22,98.98-.63,2.33-2.3,7.49-2.25,9.6.13,5.22,6.02,19.85,8.41,25.07,2.51,5.49,5.64,11.55,9.38,16.23,8.67-42.12,47.05-70.37,84.19-86.86ZM259.13,193.27c-41.46.92-81.95-14.93-116.2-37.1-4.95-3.2-9.59-7.01-14.67-9.91-11.66,4.98-22.99,11.31-33.34,18.71-9.08,6.49-18.01,14.23-24.86,23.01,4.09,9.63,11.58,18.58,19.27,25.61,35,32,104.42,53.67,148.99,32.11,8.97-4.34,19.38-19.26,24.58-27.92,4.83-8.04,9.35-17.12,11.68-26.21l-15.43,1.71ZM209.99,266.5c-11.38,1.5-23.28.99-34.65-.48-39.03-5.02-84.73-26.24-108.84-57.98-.84-1.11-4.68-7.48-5.12-7.58-.66-.16-.87.56-1.14.97-5.41,8.31-9.22,22.83-9.65,32.69-.05,1.11-.2,1.95.4,2.98,1.24,2.14,6.83,7.37,8.91,9.3,36.84,34.1,89.64,44.56,136.87,26.77,4.58-1.73,8.89-4.05,13.44-5.83l-.22-.85Z"/>
      <path class="cls-1" d="M274.56,191.56l-15.43,1.71c-41.46.92-81.95-14.93-116.2-37.1-4.95-3.2-9.59-7.01-14.67-9.91-11.66,4.98-22.99,11.31-33.34,18.71-9.08,6.49-18.01,14.23-24.86,23.01,4.09,9.63,11.58,18.58,19.27,25.61,35,32,104.42,53.67,148.99,32.11,8.97-4.34,19.38-19.26,24.58-27.92,4.83-8.04,9.35-17.12,11.68-26.21Z"/>
      <path class="cls-1" d="M210.42,56.5c.13,0,.82,1.07.64-.21-.26-1.87-1.89-4.07-2.22-6.04-3.13-1.32-11.92.38-10.74-5.2.76-3.6,4.35-2.77,7.03-3.15-2.83-4.33-4.89-9.53-7.87-13.73-2.01-2.83-3.89-2.91-7.05-3.96-20.08-6.69-42.13-7.56-62.99-4.54,4.04,11.24,6.87,22.68,8.41,34.57,3.45,26.61,2.4,54.07.92,80.8l.61,1.08c20.38,14.79,42.7,27.19,66.68,35.12,5.51-12.45,10.08-25.43,12.59-38.87,1.04-5.58,1.96-11.44,2.07-17.04-3.39-1.71-13.43.49-12.01-6.01.98-4.49,9.48-1.47,12.62-1.58v-11.43c-3.69-1.3-14.5,1.74-13.53-4.84.14-.95,1.43-2.78,2.31-2.78h9.74c.16,0,.4.83,1.04-.2l-1.68-8.48c-3.45-1.81-14.14.92-13.55-5.03s12.21-1.72,12.28-3.01l-1.78-7.33c-3.27-1.7-14.12.97-12.98-5.27.12-.64,1.96-2.85,2.26-2.85,2.39,0,4.81-.1,7.2,0Z"/>
      <path class="cls-1" d="M39.15,220.78c8.67-42.12,47.05-70.37,84.19-86.86l1.36-20.87c-.24-14.05.58-28.24-.87-42.15-48.76,13.77-86.78,49.74-100.22,98.98-.63,2.33-2.3,7.49-2.25,9.6.13,5.22,6.02,19.85,8.41,25.07,2.51,5.49,5.64,11.55,9.38,16.23Z"/>
      <path class="cls-1" d="M232.23,111.33c3.3,2.17,13.77,5.27,12.19,10.5-.31,1.02-2.36,2.49-3.48,2.41-1.43-.1-4.86-2.9-6.45-3.74-.56-.3-2.55-1.6-2.91-.92-2,19.19-7.17,37.92-15.02,55.47,20.2,5.4,41.61,6.83,62.16,2.47,12.44-54.55-13.54-112.82-61.31-140.91-.34.42,3.6,9.57,4.04,10.14,1.13,1.45,7.52,4.05,9.73,6.36,3.05,3.18,1.06,7.3-3.32,6.28-1-.23-1.4-1.22-2.42-1.18.51.76.4,2.01.81,2.68.35.56,8.55,4.47,10.2,6.41,2.34,2.75-.47,7.02-3.83,5.96-.78-.25-3.43-2.73-3.79-2.35l1.05,5.5c2.96,1.87,13.3,6.36,9.3,10.99-2.65,3.07-5.46-.27-7.81-1.68-.17.23.3,5.01.42,5.71.22,1.23,4,2.34,5.36,3.11,2.71,1.53,7.77,4.45,3.97,7.92-3.39,3.1-5.66-1.72-8.91-1.92v10.8Z"/>
      <path class="cls-1" d="M210.21,267.34l-.22-.85c-11.38,1.5-23.28.99-34.65-.48-39.03-5.02-84.73-26.24-108.84-57.98-.84-1.11-4.68-7.48-5.12-7.58-.66-.16-.87.56-1.14.97-5.41,8.31-9.22,22.83-9.65,32.69-.05,1.11-.2,1.95.4,2.98,1.24,2.14,6.83,7.37,8.91,9.3,36.84,34.1,89.64,44.56,136.87,26.77,4.58-1.73,8.89-4.05,13.44-5.83Z"/>
      <path class="cls-1" d="M17.99,145.83l7.97-15.52c20.78-36.15,56.26-62.12,96.55-72.6-.82-11.87-3.72-23.71-8.45-34.63C59.49,37.58,19.19,89.27,17.99,145.83Z"/>
    </g>
  </g>
</svg>