<?xml version="1.0" encoding="UTF-8"?>
<svg id="Layer_2" data-name="Layer 2" xmlns="http://www.w3.org/2000/svg" version="1.1" viewBox="0 0 495 491.9">
  <defs>
    <style>
      .cls-1 {
        fill: #000;
      }

      .cls-1, .cls-2 {
        stroke-width: 0px;
      }

      .cls-3 {
        fill: #456ab3;
        stroke: #fff;
        stroke-miterlimit: 10;
        stroke-width: 15px;
      }

      .cls-2 {
        fill: #fff;
      }
    </style>
  </defs>
  <g id="Layer_1-2" data-name="Layer 1-2">
    <g>
      <ellipse class="cls-3" cx="247.5" cy="245.9" rx="240" ry="238.4"/>
      <g>
        <g>
          <path class="cls-1" d="M397.3,244.1c0,82.8-67.1,149.8-149.8,149.8s-149.8-67.1-149.8-149.8S164.7,94.3,247.5,94.3s149.8,67.1,149.8,149.8ZM186.9,150.8c2.4-.1,4.8,0,7.2,0s2.1,2.2,2.3,2.9c1.1,6.2-9.7,3.6-13,5.3l-1.8,7.3c0,1.3,11.7-3,12.3,3s-10.1,3.2-13.6,5l-1.7,8.5c.6,1,.9.2,1,.2h9.7c.9,0,2.2,1.8,2.3,2.8,1,6.6-9.8,3.5-13.5,4.8v11.4c3.1.1,11.6-2.9,12.6,1.6,1.4,6.5-8.6,4.3-12,6,.1,5.6,1,11.5,2.1,17,2.5,13.4,7.1,26.4,12.6,38.9,24-7.9,46.3-20.3,66.7-35.1l.6-1.1c-1.5-26.7-2.5-54.2.9-80.8,1.5-11.9,4.4-23.3,8.4-34.6-20.9-3-42.9-2.2-63,4.5-3.2,1.1-5,1.1-7.1,4-3,4.2-5,9.4-7.9,13.7,2.7.4,6.3-.4,7,3.1,1.2,5.6-7.6,3.9-10.7,5.2-.3,2-2,4.2-2.2,6-.2,1.3.5.2.6.2h0ZM379.4,240.1c-1.2-56.6-41.5-108.2-96.1-122.8-4.7,10.9-7.6,22.8-8.5,34.6,40.3,10.5,75.8,36.4,96.6,72.6l8,15.5ZM165.1,205.6v-10.8c-3.2.2-5.5,5-8.9,1.9-3.8-3.5,1.2-6.4,4-7.9,1.4-.8,5.1-1.9,5.4-3.1.1-.7.6-5.5.4-5.7-2.4,1.4-5.2,4.8-7.8,1.7-4-4.6,6.3-9.1,9.3-11l1.1-5.5c-.4-.4-3,2.1-3.8,2.4-3.4,1.1-6.2-3.2-3.8-6,1.6-1.9,9.9-5.9,10.2-6.4.4-.7.3-1.9.8-2.7-1,0-1.4.9-2.4,1.2-4.4,1-6.4-3.1-3.3-6.3,2.2-2.3,8.6-4.9,9.7-6.4.4-.6,4.4-9.7,4-10.1-47.8,28.1-73.8,86.4-61.3,140.9,20.6,4.4,42,2.9,62.2-2.5-7.9-17.6-13-36.3-15-55.5-.4-.7-2.4.6-2.9.9-1.6.8-5,3.6-6.4,3.7-1.1,0-3.2-1.4-3.5-2.4-1.6-5.2,8.9-8.3,12.2-10.5h0ZM358.2,315.1c3.7-4.7,6.9-10.7,9.4-16.2,2.4-5.2,8.3-19.9,8.4-25.1,0-2.1-1.6-7.3-2.2-9.6-13.4-49.2-51.5-85.2-100.2-99-1.5,13.9-.6,28.1-.9,42.1l1.4,20.9c37.1,16.5,75.5,44.7,84.2,86.9h0ZM122.8,285.9c2.3,9.1,6.8,18.2,11.7,26.2,5.2,8.7,15.6,23.6,24.6,27.9,44.6,21.6,114-.1,149-32.1,7.7-7,15.2-16,19.3-25.6-6.9-8.8-15.8-16.5-24.9-23-10.4-7.4-21.7-13.7-33.3-18.7-5.1,2.9-9.7,6.7-14.7,9.9-34.2,22.2-74.7,38-116.2,37.1l-15.4-1.7h0ZM187.1,361.6c4.6,1.8,8.9,4.1,13.4,5.8,47.2,17.8,100,7.3,136.9-26.8,2.1-1.9,7.7-7.1,8.9-9.3.6-1,.4-1.9.4-3-.4-9.9-4.2-24.4-9.6-32.7-.3-.4-.5-1.1-1.1-1-.4.1-4.3,6.5-5.1,7.6-24.1,31.7-69.8,53-108.8,58-11.4,1.5-23.3,2-34.6.5l-.2.9h0Z"/>
          <path class="cls-2" d="M122.8,285.9l15.4,1.7c41.5.9,81.9-14.9,116.2-37.1,4.9-3.2,9.6-7,14.7-9.9,11.7,5,23,11.3,33.3,18.7,9.1,6.5,18,14.2,24.9,23-4.1,9.6-11.6,18.6-19.3,25.6-35,32-104.4,53.7-149,32.1-9-4.3-19.4-19.3-24.6-27.9-4.8-8-9.3-17.1-11.7-26.2h0Z"/>
          <path class="cls-2" d="M186.9,150.8c-.1,0-.8,1.1-.6-.2.3-1.9,1.9-4.1,2.2-6,3.1-1.3,11.9.4,10.7-5.2-.8-3.6-4.4-2.8-7-3.1,2.8-4.3,4.9-9.5,7.9-13.7,2-2.8,3.9-2.9,7.1-4,20.1-6.7,42.1-7.6,63-4.5-4,11.2-6.9,22.7-8.4,34.6-3.5,26.6-2.4,54.1-.9,80.8l-.6,1.1c-20.4,14.8-42.7,27.2-66.7,35.1-5.5-12.4-10.1-25.4-12.6-38.9-1-5.6-2-11.4-2.1-17,3.4-1.7,13.4.5,12-6-1-4.5-9.5-1.5-12.6-1.6v-11.4c3.7-1.3,14.5,1.7,13.5-4.8-.1-.9-1.4-2.8-2.3-2.8h-9.7c-.2,0-.4.8-1-.2l1.7-8.5c3.4-1.8,14.1.9,13.6-5s-12.2-1.7-12.3-3l1.8-7.3c3.3-1.7,14.1,1,13-5.3-.1-.6-2-2.9-2.3-2.9-2.4,0-4.8-.1-7.2,0h0Z"/>
          <path class="cls-2" d="M358.2,315.1c-8.7-42.1-47-70.4-84.2-86.9l-1.4-20.9c.2-14.1-.6-28.2.9-42.2,48.8,13.8,86.8,49.7,100.2,99,.6,2.3,2.3,7.5,2.2,9.6-.1,5.2-6,19.9-8.4,25.1-2.5,5.5-5.6,11.5-9.4,16.2h0Z"/>
          <path class="cls-2" d="M165.1,205.6c-3.3,2.2-13.8,5.3-12.2,10.5.3,1,2.4,2.5,3.5,2.4,1.4-.1,4.9-2.9,6.4-3.7.6-.3,2.6-1.6,2.9-.9,2,19.2,7.2,37.9,15,55.5-20.2,5.4-41.6,6.8-62.2,2.5-12.4-54.6,13.5-112.8,61.3-140.9.3.4-3.6,9.6-4,10.1-1.1,1.4-7.5,4.1-9.7,6.4-3.1,3.2-1.1,7.3,3.3,6.3,1-.2,1.4-1.2,2.4-1.2-.5.8-.4,2-.8,2.7-.4.6-8.6,4.5-10.2,6.4-2.3,2.8.5,7,3.8,6,.8-.2,3.4-2.7,3.8-2.4l-1.1,5.5c-3,1.9-13.3,6.4-9.3,11,2.6,3.1,5.5-.3,7.8-1.7.2.2-.3,5-.4,5.7-.2,1.2-4,2.3-5.4,3.1-2.7,1.5-7.8,4.4-4,7.9,3.4,3.1,5.7-1.7,8.9-1.9v10.8h0Z"/>
          <path class="cls-2" d="M187.1,361.6l.2-.9c11.4,1.5,23.3,1,34.7-.5,39-5,84.7-26.2,108.8-58,.8-1.1,4.7-7.5,5.1-7.6.7-.2.9.6,1.1,1,5.4,8.3,9.2,22.8,9.6,32.7,0,1.1.2,2-.4,3-1.2,2.1-6.8,7.4-8.9,9.3-36.8,34.1-89.6,44.6-136.9,26.8-4.6-1.7-8.9-4-13.4-5.8h0Z"/>
          <path class="cls-2" d="M379.4,240.1l-8-15.5c-20.8-36.1-56.3-62.1-96.5-72.6.8-11.9,3.7-23.7,8.5-34.6,54.6,14.5,94.9,66.2,96.1,122.8h0Z"/>
        </g>
        <g>
          <g>
            <path class="cls-2" d="M85.4,217.1c-.1,1.6-.6,5.5-1.3,9.5-.7,4-1.4,7.4-1.9,9.2-.4,1.6-1.3,2.3-3.2,2-6.3-.9-15.1-2.4-24.2-3.9-9.1-1.6-17.8-3.1-24.1-4.4-1.9-.4-2.5-1.3-2.4-3,.3-3.7,2.3-15.2,3-19.4.7-4,3.3-18.5,3.9-20.7.4-1.6,1.3-2.5,3.3-2.2,1.6.2,3.8.6,5.5.9,1.7.3,3.7.6,5.2,1,1.6.4,2.1.9,1.8,2.3l-3.2,18.9c-.1.7.2,1,1.2,1.2l4.4.8c1.1.2,1.3,0,1.4-.7l3-17.2c.2-1.3.5-1.8,1.9-1.7,1.6.2,3.5.5,5.1.8,1.6.3,3.5.6,5.1.9,1.3.3,1.4.9,1.2,2.2l-3,17.2c-.1.7.2,1,1.2,1.2l13.8,2.4c1.9.3,2.5,1.2,2.4,2.8h0Z"/>
            <path class="cls-2" d="M114.9,140c.4.2.7.5.9.9.2.5,0,1.2-.4,2.3-.9,2-2.5,5.2-4,7.9s-3.1,5.7-4.4,7.7c-1.7,2.5-2.7,2.9-5.7,2.5l-13.5-2.1-1.3,2.4,12.1,6.5c1.7.9,2,2,1.3,3.5-.6,1.5-2.2,4.7-4.1,8.3-1.8,3.4-3.6,6.4-4.5,7.7-.9,1.4-1.9,1.7-3.7.9-5.7-2.8-13.4-6.9-21.7-11.4-8.1-4.4-15.8-8.5-21.4-11.8-1.7-1-2-2-1.3-3.6,1.5-3.4,6.9-13.6,11.1-21.4,2.9-5.4,6.3-11.3,8.8-15.1,5.1-7.8,8.8-7.8,20.6-1.3,10.6,5.7,12.3,8.3,10.6,14.3l17.5,1c1.9.1,2.6.4,3.2.7h0ZM76.3,147.3c-.7-.7-1.8-1.3-3.1-2s-2.4-1.2-3.3-1.4c-1.2-.4-1.6-.3-2.2.7l-2.7,4.9c-.3.5,0,.9,1,1.4l6.4,3.4c1,.6,1.5.5,1.8,0l2.7-4.9c.6-1,.4-1.4-.6-2.2h0Z"/>
            <path class="cls-2" d="M146,96.8c1.1,1.1,2.2,2.3,3.4,3.6,1.2,1.3,2.4,2.6,3.4,3.8,1.3,1.5,1,2.7-.1,4-1.6,1.8-12.7,12.2-15.8,15-3.2,2.9-13.5,12.4-16.4,14.7-1.3,1-2.4,1-3.8-.4-4.5-4.5-10.5-11.1-16.8-17.8-6.3-6.8-12.3-13.3-16.4-18.2-1.3-1.5-1.2-2.6,0-3.8,2.5-2.8,12.8-12.2,16-15.2,3.1-2.8,14.3-13.1,16.2-14.5,1.3-1,2.6-1.2,4,.2,1.1,1.1,2.4,2.4,3.5,3.7s2.2,2.4,3.3,3.7c1.1,1.3,1.1,2,0,3l-16.9,15.6c-.5.5-.5.9.3,1.7l2,2.2c.8.8,1,.8,1.6.3l15.7-14.5c1-.9,1.6-1.1,2.5-.2,1.1,1.1,2.4,2.4,3.4,3.6,1.1,1.2,2.3,2.5,3.3,3.7.9,1,.6,1.6-.4,2.5l-15.7,14.5c-.5.5-.5.9.3,1.7l2,2.2c.8.8,1,.8,1.6.3l16.9-15.6c1-1,1.8-.9,2.9.3h0Z"/>
            <path class="cls-2" d="M197.2,72.2c.7,1.4,1.4,2.8,2.1,4.4s1.5,3.2,2.1,4.7c.8,1.8.1,2.9-1.3,3.7-2.1,1.2-15.9,7.6-19.7,9.3-3.9,1.8-16.7,7.6-20.2,8.8-1.6.5-2.6.2-3.5-1.5-2.9-5.7-6.5-13.8-10.4-22.2s-7.5-16.5-9.9-22.4c-.8-1.8-.3-2.8,1.1-3.6,3.2-1.8,16-7.6,19.9-9.4,3.8-1.7,17.7-8,20-8.7,1.6-.5,2.8-.3,3.7,1.4.7,1.4,1.5,3.1,2.2,4.6.7,1.6,1.4,3,2,4.5.6,1.5.4,2.2-.9,2.8l-20.9,9.5c-.6.3-.7.7-.3,1.7l1.2,2.7c.5,1,.7,1,1.4.8l19.5-8.9c1.2-.6,1.8-.6,2.4.6.7,1.4,1.5,3.1,2.1,4.5.6,1.4,1.4,3.1,2,4.6.5,1.2,0,1.7-1.1,2.3l-19.5,8.9c-.6.3-.7.7-.3,1.7l1.2,2.7c.5,1,.7,1.1,1.4.8l20.9-9.5c1.3-.6,1.9-.3,2.7,1.2h0Z"/>
            <path class="cls-2" d="M269.9,25.2c6.1.8,7.7,2,8.7,7.1.5,2.4,1.2,8.2,1,15,0,1.5-.2,2-1.5,2-3.6,0-8.3,0-10.6,0-1.7,0-8.5-.2-10.4-.4-1.3,0-1.4-.3-1.5-1.3s0-6.3,0-7.6c0-.8-.3-1.1-1.2-1.3-.4,0-1.3-.2-2-.2-.6,0-1.6,0-2,.1-.8.1-1.2.4-1.3,1.2-.3,3.2-.4,7.7-.5,12.4,0,4.2-.2,9.2,0,12.4,0,.9.4,1.1,1.2,1.3.4,0,1.3.2,2,.2s1.6,0,2-.1c.9-.1,1.2-.4,1.3-1.2.2-1.3.4-7.5.5-8.4.1-1,.3-1.2,1.5-1.2,1.9-.1,8.7,0,10.4,0,2.3,0,7,.1,10.6.4,1.3,0,1.5.6,1.5,2.1-.3,6.8-1.1,13.4-1.7,15.8-1.2,5-2.9,6.2-9,6.7-4.2.4-12.4.5-17.2.4-5.1,0-12.7-.6-17.2-1.1-6.1-.8-7.6-1.9-8.7-7.1-.8-3.8-1.4-11.3-1.2-20.6s1.1-16.7,2.1-20.5c1.3-5.4,3.2-6.2,9-6.7,4.2-.4,12.4-.5,17.2-.4,4.8.1,13,.6,17.2,1.1h0Z"/>
            <path class="cls-2" d="M319.6,36.7c1.5.6,2.1,1.5,1.6,3.5-1.6,6.2-4.1,14.7-6.7,23.5-2.7,9-5.1,17.3-7.2,23.4-.6,1.9-1.6,2.3-3.2,2-1.6-.3-5.8-1.4-9.6-2.5-3.8-1.1-7.9-2.5-9.4-3.1-1.5-.6-2.1-1.5-1.6-3.4,1.6-6.2,4-14.5,6.7-23.5,2.6-8.9,5.1-17.4,7.2-23.4.6-1.9,1.6-2.3,3.2-2,1.6.3,5.8,1.4,9.6,2.5s7.9,2.5,9.4,3.1h0Z"/>
            <path class="cls-2" d="M382.4,72.4c-.8,1.4-2.2,3.9-3.1,5.3-.8,1.3-2.3,3.9-3.2,5.2-1.1,1.7-2.5,1.8-4.2.8-2.1-1.3-6.8-4.3-9.6-5.9l-5,8.3c-4.8,8.1-9.3,15.5-12.8,20.9-1.1,1.7-2.1,1.9-3.6,1.1-1.4-.7-5-2.6-8.4-4.7-3.4-2-6.8-4.2-8-5.2-1.3-1-1.6-2-.7-3.7,3.1-5.6,7.6-13.1,12.4-21.1l5-8.3c-2.8-1.7-7.7-4.4-9.8-5.7-1.7-1-2.2-2.3-1.2-4.1.8-1.4,2.2-3.9,3.1-5.3.8-1.3,2.3-3.9,3.2-5.2,1.1-1.7,2.4-1.7,3.8-1,2,.9,13.2,7.6,20.8,12.1,7.5,4.5,18.6,11.4,20.4,12.6,1.3.9,1.9,2.1.9,3.9h0Z"/>
            <path class="cls-2" d="M411.3,97.4c1,1.3,1.1,2.3-.2,3.8-4.4,4.7-10.7,10.9-17.3,17.4-6.7,6.6-12.9,12.7-17.6,17-1.5,1.3-2.5,1.3-3.8.2-1.2-1-4.4-4-7.2-6.8-2.8-2.8-5.7-6-6.7-7.2-1-1.3-1.1-2.3.2-3.8,4.4-4.7,10.6-10.8,17.3-17.4,6.6-6.5,12.9-12.7,17.6-17,1.5-1.3,2.5-1.3,3.8-.2,1.2,1,4.4,4,7.1,6.8s5.7,6,6.7,7.2h0Z"/>
            <path class="cls-2" d="M414.4,176.9c-1.3.9-2.7,1.7-4.2,2.5s-3.1,1.8-4.5,2.5c-1.8.9-2.9.4-3.9-1-1.4-1.9-9.1-15.1-11.2-18.7-2.2-3.8-9.2-15.8-10.8-19.2-.7-1.5-.5-2.6,1.2-3.6,5.4-3.4,13.1-7.9,21-12.5,8-4.7,15.6-9.1,21.3-12.1,1.8-.9,2.8-.6,3.7.8,2.1,3.1,9.2,15.1,11.4,18.9,2.1,3.6,9.7,16.8,10.7,19,.7,1.5.6,2.8-1.1,3.8-1.3.9-2.9,1.8-4.4,2.6s-2.9,1.7-4.3,2.4c-1.5.8-2.2.6-2.9-.6l-11.6-19.9c-.4-.6-.8-.7-1.7-.1l-2.6,1.5c-1,.6-1,.8-.6,1.4l10.8,18.5c.7,1.2.8,1.8-.4,2.5-1.3.9-2.9,1.8-4.3,2.6-1.4.8-2.9,1.7-4.3,2.4-1.2.6-1.7.2-2.4-.9l-10.8-18.5c-.4-.6-.8-.7-1.7-.1l-2.6,1.5c-1,.6-1,.8-.6,1.4l11.6,19.9c.7,1.2.5,1.9-.9,2.8h0Z"/>
            <path class="cls-2" d="M422.1,209.7c.5,2.6,1.1,2.8,2.7,2.5,1.6-.2,4.7-.9,7-1.3,1.1-.2,1.2-.5,1-1.2-.4-2.2-4.9-25-5-26.2-.2-1.4.4-2.2,1.9-2.6,2.8-.7,8.8-1.9,12.4-2.6,12.9-2.6,15.8-1,18.3,7.6.9,3.1,2.9,11.5,3.7,15.4s2.1,12.1,2.4,15.3c.9,8.9-1.5,11.9-14,14.4-1.9.4-2.3.1-2.8-1.5s-1.5-6.8-2-9.4-1.7-8.4-1.9-10.2c-.1-1.5,0-1.6,1.2-1.9l2.4-.6c1.7-.4,1.9-1.1,1.4-3.4-.5-2.7-1.1-2.8-2.7-2.5-1.6.2-4.7.9-6.2,1.1-1.1.2-1.2.5-1.1,1.2.4,2.2,4.9,25,5,26.2.2,1.4-.4,2.2-1.9,2.6-2.8.7-9.6,2.1-13.2,2.8-12.9,2.6-15.7,1.1-18.3-7.4-.9-3.1-3-11.6-3.8-15.6-.8-3.9-2.1-12.1-2.4-15.3-.9-8.9,1.1-11.8,14.8-14.5,1.9-.4,2.3-.1,2.8,1.5s1.5,6.8,2,9.4,1.7,8.4,1.9,10.2c.1,1.5,0,1.6-1.2,1.9l-3.1.8c-1.7.4-1.9,1.1-1.4,3.4h0Z"/>
          </g>
          <g>
            <g>
              <path class="cls-2" d="M53.3,293.9c.3,1.4.6,1.4,1.4,1.3.8-.2,2.4-.5,3.6-.8.6-.1.6-.3.5-.6-.3-1.1-3-12.8-3.1-13.5-.1-.7.2-1.1.9-1.4,1.5-.4,4.5-1.2,6.4-1.6,6.6-1.6,8.1-.8,9.6,3.6.6,1.6,1.7,5.9,2.2,7.9s1.3,6.2,1.5,7.9c.6,4.6-.6,6.2-6.9,7.7-1,.2-1.2.1-1.5-.7s-.9-3.5-1.2-4.8c-.3-1.4-1-4.3-1.2-5.2,0-.8,0-.8.6-1l1.2-.4c.9-.2.9-.6.7-1.8-.3-1.4-.6-1.4-1.4-1.3-.8.2-2.4.5-3.2.7-.6.1-.6.3-.5.6.3,1.1,3,12.8,3.1,13.5.1.7-.2,1.1-.9,1.4-1.5.4-4.9,1.2-6.8,1.7-6.6,1.6-8.1.9-9.6-3.5-.5-1.6-1.8-6-2.2-8-.5-2-1.3-6.2-1.5-7.9-.6-4.6.3-6.1,7.3-7.8,1-.2,1.2-.1,1.5.7.3.8.9,3.5,1.2,4.8.3,1.4,1,4.3,1.2,5.2,0,.8,0,.8-.6,1l-1.6.5c-.9.2-1,.6-.7,1.8h0Z"/>
              <path class="cls-2" d="M60.3,334c-.4-.7-1.4-2.5-2.3-4.4-.9-1.8-1.7-3.6-1.9-4.4-.3-.8-.1-1.3.8-1.8,2.9-1.5,7-3.5,11.4-5.6,4.3-2.1,8.4-4,11.4-5.3.9-.4,1.5-.2,1.9.5.9,1.6,3.6,7,5.7,11.5,1.2,2.5,2.7,5.8,3.5,8,1.7,4.5.8,5.9-6.2,9.3-6.8,3.2-8.7,3.2-11.1-1-1.2-2-2.9-5.2-4.1-7.7l-.6-1.2c-.1-.3-.3-.3-.6-.2l-6,2.9c-.9.4-1.4.2-1.9-.5h0ZM79.3,326.2l-3.5,1.7c-.6.3-.7.5-.6.7l1.1,2.3c.3.5.5.6,1.1.4.5-.1,1.2-.4,1.8-.7s1.3-.7,1.7-1c.5-.4.6-.6.4-1.1l-1.1-2.3c-.1-.3-.4-.3-.9,0h0Z"/>
              <path class="cls-2" d="M112.3,363.4c1.6,2.6,1.8,3.6,0,5.8-1.3,1.6-4.1,4.3-7.9,7.2-3.8,2.9-7.1,5-8.9,5.8-2.6,1.2-3.5.7-5.6-1.4-1.5-1.6-4.3-4.8-5.8-6.8s-4-5.4-5.1-7.3c-1.6-2.6-1.8-3.6,0-5.8,1.3-1.6,4.1-4.3,7.9-7.2,3.8-2.9,7.1-5,8.9-5.8,2.6-1.2,3.5-.7,5.6,1.4,1.5,1.6,4.3,4.8,5.8,6.8s4,5.4,5.1,7.3h0ZM100.6,359.9c-.3-.3-.5-.4-.9-.1-1.4.9-3.3,2.4-5.2,3.8s-3.8,2.9-5,4c-.4.3-.3.5-.1.9.1.2.4.6.6.9.2.3.5.6.7.8.3.3.5.4.9.1,1.4-.9,3.3-2.4,5.2-3.8,1.8-1.4,3.8-2.9,5-4,.4-.3.3-.5.1-.9-.1-.2-.4-.6-.6-.9-.2-.3-.5-.6-.7-.8Z"/>
              <path class="cls-2" d="M127.1,414.4c-.2.2-.3.3-.6.3-.3,0-.6,0-1.1-.5-.9-.7-2.4-1.8-3.6-2.9-1.2-1-2.6-2.2-3.5-3.1-1.1-1.1-1.2-1.7-.7-3.2l2.5-6.6-1.1-.9-4.6,5.5c-.7.8-1.2.8-1.9.3-.7-.5-2.2-1.6-3.8-3-1.5-1.3-2.9-2.5-3.4-3.1-.6-.6-.7-1.2,0-2,2-2.6,4.9-6.1,8.1-9.8,3.1-3.7,6-7.1,8.2-9.6.7-.8,1.2-.8,1.9-.3,1.5,1.1,6.2,4.9,9.7,7.9,2.4,2,5.1,4.4,6.7,6,3.4,3.4,3,5.2-1.5,10.6-4,4.8-5.5,5.4-8.4,3.9l-2.3,8.8c-.3,1-.5,1.3-.7,1.5h0ZM127.4,394.1c.4-.3.9-.8,1.3-1.3.5-.6.9-1.1,1.1-1.5.3-.6.3-.8-.1-1.2l-2.2-1.9c-.2-.2-.5,0-.8.4l-2.4,2.9c-.4.5-.4.7-.2.9l2.2,1.9c.5.4.7.4,1.2,0h0Z"/>
              <path class="cls-2" d="M174.7,412.1c-.4.7-1.1,2.1-1.5,2.8s-1.1,2-1.5,2.8c-.5.9-1.2,1-2.1.5-1.1-.6-3.6-2-5.1-2.9l-2.4,4.4c-2.3,4.3-4.4,8.2-6.1,11.1-.5.9-1.1,1-1.9.7-.8-.3-2.6-1.2-4.4-2.2-1.8-1-3.6-2-4.3-2.5-.7-.5-.9-1-.4-1.9,1.5-3,3.6-6.9,5.9-11.2l2.4-4.4c-1.5-.8-4.1-2.1-5.2-2.7-.9-.5-1.2-1.1-.7-2.1.4-.7,1.1-2.1,1.5-2.8s1.1-2,1.5-2.8c.5-.9,1.2-.9,2-.6,1.1.4,7,3.6,11,5.8,4,2.1,9.9,5.4,10.9,6,.7.5,1,1.1.6,2h0Z"/>
              <path class="cls-2" d="M190.6,438.9c1.3.4,1.5.2,1.8-.6.3-.8.8-2.4,1.1-3.5.2-.5,0-.7-.3-.8-1.1-.3-12.6-3.8-13.2-4-.7-.2-.9-.7-.7-1.5.4-1.5,1.2-4.5,1.8-6.3,1.9-6.5,3.4-7.5,7.9-6.6,1.6.3,6,1.4,8,2,2,.6,6,2,7.6,2.6,4.3,1.7,5.1,3.6,3.2,9.9-.3,1-.5,1.1-1.3.9-.9-.2-3.5-1-4.8-1.3s-4.2-1.3-5.1-1.6c-.7-.3-.8-.4-.6-1l.3-1.2c.2-.9,0-1.1-1.2-1.5-1.4-.4-1.5-.2-1.8.6-.3.8-.8,2.4-1,3.1-.2.5,0,.7.3.8,1.1.3,12.6,3.8,13.2,4,.7.2.9.7.7,1.5-.4,1.5-1.4,4.9-1.9,6.7-1.9,6.5-3.3,7.5-7.8,6.6-1.6-.3-6.1-1.5-8.1-2-2-.6-6-2-7.6-2.6-4.3-1.7-5.1-3.4-3.1-10.3.3-1,.5-1.1,1.3-.9.9.2,3.5,1,4.8,1.3,1.3.4,4.2,1.3,5.1,1.6.7.3.8.4.6,1l-.4,1.6c-.2.9,0,1.1,1.2,1.5h0Z"/>
              <path class="cls-2" d="M256.1,425.2c.7-.1,2.9-.2,4.3-.3,1.8,0,3.7,0,4.4,0,.7,0,1.1.4,1.1,1.4.2,3.3.3,7.9.4,12.7.1,4.8.2,9.4.2,12.7,0,1-.3,1.4-1,1.5-.7.1-2.7.2-4.5.3-1.5,0-2.5,0-3.2,0-2-.2-2.4-.4-3.4-1.9l-5.6-8.7.2,9.3c0,1-.2,1.4-1,1.5-.7.1-2.9.2-4.3.3-1.8,0-3.7,0-4.4,0-.7,0-1.1-.4-1.1-1.5-.2-3.3-.3-7.8-.4-12.7-.1-4.8-.2-9.4-.2-12.7,0-1,.4-1.4,1.3-1.5.8-.1,3-.2,4.3-.3,1.1,0,2.4,0,2.9,0,2,.2,2.4.4,3.4,2l5.9,9-.2-9.6c0-1,.2-1.4,1-1.5h0Z"/>
              <path class="cls-2" d="M305.9,438.8c.2.8.4,1.6.6,2.5s.4,1.8.6,2.6c.2,1-.2,1.5-1.1,1.8-1.2.4-8.8,2.2-11,2.7-2.2.5-9.2,2.2-11.1,2.5-.9.1-1.3-.1-1.6-1.1-.9-3.2-1.9-7.7-3-12.3-1.1-4.7-2.1-9.1-2.8-12.4-.2-1,.1-1.5.9-1.7,1.8-.6,8.9-2.2,11.1-2.8,2.1-.5,9.8-2.3,11-2.4.9-.1,1.5.1,1.7,1.1.2.8.4,1.7.6,2.6.2.9.4,1.7.5,2.5.2.9,0,1.2-.7,1.4l-11.6,2.7c-.4,0-.4.3-.3.8l.4,1.5c.1.6.3.6.6.5l10.8-2.5c.7-.2,1-.1,1.2.6.2.8.4,1.7.6,2.5s.4,1.7.5,2.5c.1.7-.1.9-.8,1l-10.8,2.5c-.4,0-.4.3-.3.8l.4,1.5c.1.6.3.6.6.5l11.6-2.7c.7-.2,1,0,1.3.9h0Z"/>
              <path class="cls-2" d="M335,404.7c.4.7,1,2.1,1.4,2.8s1,2.1,1.3,2.9c.4,1,0,1.6-.9,2-1.1.5-3.8,1.7-5.4,2.4l2.1,4.5c2,4.4,3.9,8.5,5.2,11.6.4,1,.2,1.5-.6,1.9-.7.4-2.6,1.4-4.4,2.2-1.9.9-3.8,1.6-4.6,1.9-.8.3-1.3.1-1.8-.8-1.5-3-3.4-7-5.4-11.5l-2.1-4.5c-1.5.7-4.1,2-5.3,2.5-.9.4-1.6.3-2.1-.6-.4-.7-1-2.1-1.4-2.8s-1-2.1-1.3-2.9c-.4-1,0-1.5.7-1.9,1-.6,7.1-3.5,11.2-5.4,4.1-1.9,10.3-4.6,11.4-5,.8-.3,1.5-.2,1.9.7h0Z"/>
              <path class="cls-2" d="M367.3,379.4c.6-.5,1.8-1.6,3.3-2.8,1.5-1.2,3.2-2.4,3.8-2.9.7-.4,1.2-.3,1.6.3.4.5,1,1.5,1.9,3l11.5,19.2c.5.8.4,1.5-.3,2.1-1.5,1.3-3.9,3.2-5.8,4.7-1.9,1.5-3,2.4-4.5,3.5-.7.5-1.4.5-2.1-.2l-11.3-11.4h-.1c0,.1,8.7,13.6,8.7,13.6.5.8.4,1.5-.3,2.1-1.5,1.3-2.5,2.1-4.5,3.7s-4.3,3.5-5.9,4.6c-.7.5-1.4.5-2.1-.2l-16.3-15.4c-1.3-1.2-2.1-2-2.5-2.5-.5-.6-.5-1.1,0-1.6s2.2-1.9,3.6-3.1c1.5-1.2,2.8-2.2,3.5-2.6,1.1-.8,1.5-.7,2.5.4l11,11.8h.1c0-.1-8.3-14.5-8.3-14.5-.5-.9-.5-1.4,0-1.9.5-.5,1.9-1.7,3.3-2.9,1.5-1.2,2.9-2.2,3.5-2.6.7-.4,1.1-.4,1.9.4l12.2,11.3h.1c0-.1-9.1-13.4-9.1-13.4-.9-1.3-.8-1.6.1-2.6h0Z"/>
              <path class="cls-2" d="M394.5,347.9c2.1-2.2,3-2.7,5.6-1.5,1.8.8,5.2,2.9,9,5.8,3.8,2.9,6.7,5.6,8,7.1,1.8,2.2,1.6,3.2,0,5.8-1.1,1.9-3.6,5.4-5.1,7.3-1.5,2-4.2,5.3-5.7,6.9-2.1,2.2-3,2.7-5.6,1.5-1.8-.8-5.2-2.9-9-5.8s-6.7-5.6-8-7.1c-1.8-2.2-1.6-3.2,0-5.8,1.1-1.9,3.6-5.4,5.1-7.4s4.2-5.3,5.7-6.9h0ZM394.2,360.2c-.2.4-.2.6.1.9,1.2,1.1,3.2,2.6,5,4,1.8,1.4,3.8,2.9,5.2,3.8.4.3.6.1.9-.1.2-.2.5-.5.7-.8.2-.3.4-.6.5-.9.2-.4.2-.6-.1-.9-1.2-1.1-3.2-2.6-5-4-1.8-1.4-3.8-2.9-5.2-3.8-.4-.3-.6-.1-.9.1-.2.2-.5.5-.7.8-.2.3-.5.7-.5.9h0Z"/>
              <path class="cls-2" d="M439.9,320.5c.2.1.4.2.5.4.1.3,0,.6-.1,1.2-.4,1.1-1.1,2.8-1.8,4.2s-1.4,3-2.1,4.1c-.8,1.3-1.3,1.6-2.9,1.5l-7-.7-.6,1.3,6.5,3c.9.4,1.1,1,.8,1.8-.3.8-1,2.5-1.9,4.4-.9,1.8-1.7,3.4-2.1,4.1-.4.7-.9,1-1.9.6-3.1-1.3-7.1-3.2-11.5-5.2-4.3-2-8.5-3.9-11.4-5.5-.9-.5-1.1-1-.8-1.8.6-1.8,3.1-7.2,5.1-11.4,1.3-2.9,2.9-6,4.1-8.1,2.4-4.2,4.3-4.3,10.6-1.3,5.7,2.6,6.6,3.9,5.9,7.1h9.1c1,0,1.4.1,1.7.3h0ZM420.2,325.4c-.4-.3-1-.6-1.6-.9s-1.3-.5-1.8-.6c-.6-.2-.8-.1-1.1.4l-1.2,2.6c-.1.3,0,.5.6.7l3.4,1.6c.6.3.8.2.9,0l1.2-2.6c.3-.6.2-.7-.4-1.1h0Z"/>
              <path class="cls-2" d="M451.1,277.5c.2,0,.4.1.5.3.2.2.2.6.1,1.2-.2,1.1-.5,2.8-.8,4.3-.4,1.6-.8,3.7-1.2,4.9-.5,1.5-.9,1.9-2.5,2.1l-10.8,1.3,10.5,2.4c1,.2,1.3.7,1.2,1.5-.1.8-.5,2.8-.9,4.9-.5,2-1,4-1.2,4.8-.3.8-.7,1.1-1.7,1-3.3-.6-7.6-1.6-12.4-2.6-4.7-1-9.1-2-12.4-2.9-1-.3-1.3-.7-1.1-1.6.1-.8.5-2.8.9-4.8.5-2,1-4,1.2-4.8.3-.8.7-1.1,1.7-.9l10.5,2.4-9.2-5.8c-1.4-.9-1.6-1.4-1.4-3,.2-1.3.6-3.4,1-4.9s.8-3.2,1.1-4.3c.2-.6.4-.9.6-1,.2-.1.4-.1.6,0,.3,0,.7.2,1.5.8l10.2,7.2,12.3-2.1c1-.2,1.4-.1,1.7,0h0Z"/>
            </g>
            <path class="cls-2" d="M411.2,269.8c-13,78.7-81.4,138.8-163.8,138.8s-150.8-60-163.8-138.8h-5.8c2.2,13.6,6,26.9,11.4,39.7,8.7,20.5,21,38.8,36.8,54.6,15.8,15.8,34.1,28.1,54.6,36.8,21.2,9,43.7,13.5,66.8,13.5s45.7-4.5,66.8-13.5c20.5-8.6,38.8-21,54.6-36.8s28.1-34.1,36.8-54.6c5.4-12.8,9.2-26,11.4-39.7h-5.9,0Z"/>
            <path class="cls-2" d="M462.1,269.8c-11.7,108.1-103.3,192.3-214.6,192.3S44.7,377.9,32.9,269.8h-5.8c2.3,21.6,7.7,42.6,16.2,62.7,11.2,26.4,27.2,50.1,47.5,70.4,20.4,20.4,44.1,36.3,70.4,47.5,27.3,11.5,56.4,17.4,86.3,17.4s58.9-5.9,86.3-17.4c26.4-11.2,50.1-27.1,70.4-47.5,20.4-20.4,36.3-44,47.5-70.4,8.5-20.1,13.9-41.1,16.2-62.7h-5.8,0Z"/>
            <path class="cls-2" d="M448.1,254.9l-4,1c0,0-.1,0,0,.2l1.1,4c.3,1-1,1.7-1.7,1l-2.9-3s-.1,0-.2,0l-2.9,3c-.7.7-1.9,0-1.7-1l1.1-4c0,0,0-.1,0-.2l-4-1c-1-.2-1-1.7,0-1.9l4-1c0,0,.1,0,0-.2l-1.1-4c-.3-1,1-1.7,1.7-1l2.9,2.9c0,0,.1,0,.2,0l2.9-2.9c.7-.7,1.9,0,1.7,1l-1.1,4c0,0,0,.1,0,.2l4,1c1,.2,1,1.7,0,1.9Z"/>
            <path class="cls-2" d="M63.6,254.9l-4,1c0,0-.1,0,0,.2l1.1,4c.3,1-.9,1.7-1.7,1l-2.9-3s-.1,0-.2,0l-2.9,3c-.7.7-1.9,0-1.7-1l1.1-4c0,0,0-.1,0-.2l-4-1c-1-.2-1-1.7,0-1.9l4-1c0,0,.1,0,0-.2l-1.1-4c-.3-1,.9-1.7,1.7-.9l2.9,3c0,0,.1,0,.2,0l2.9-3c.7-.7,1.9,0,1.7.9l-1.1,4c0,0,0,.1,0,.2l4,1c1,.2,1,1.7,0,1.9h0Z"/>
          </g>
        </g>
      </g>
    </g>
  </g>
</svg>